# Blender v2.78 (sub 0) OBJ File: ''
# www.blender.org
o Cylinder
v 0.000000 -1.000000 -1.000000
v 0.000000 1.000000 -1.000000
v 0.866025 -1.000000 -0.500000
v 0.866025 1.000000 -0.500000
v 0.866025 -1.000000 0.500000
v 0.866025 1.000000 0.500000
v -0.000000 -1.000000 1.000000
v -0.000000 1.000000 1.000000
v -0.866025 -1.000000 0.500000
v -0.866025 1.000000 0.500000
v -0.866025 -1.000000 -0.500000
v -0.866025 1.000000 -0.500000
vt 0.5000 1.0000
vt 0.9330 0.0000
vt 0.5000 0.0000
vt 0.7500 1.0000
vt 0.2500 0.0000
vt 0.7500 0.0000
vt 0.9330 1.0000
vt 0.5000 0.0000
vt 0.9330 0.0000
vt 0.5000 1.0000
vt 0.0670 0.0000
vt 0.0670 0.2500
vt 0.9330 0.7500
vt 0.2500 1.0000
vt 0.7500 0.0000
vt 0.2500 0.0000
vt 0.0670 1.0000
vt 0.0670 0.0000
vt 0.9330 -0.7500
vt 0.5000 -1.0000
vt 0.0670 -0.2500
vt 0.9330 1.0000
vt 0.2500 1.0000
vt 0.0670 1.0000
vt 0.9330 0.2500
vt 0.0670 0.7500
vt 0.5000 0.0000
vt 0.7500 1.0000
vt 0.9330 -0.2500
vt 0.0670 -0.7500
vn 0.5000 0.0000 -0.8660
vn 1.0000 0.0000 0.0000
vn 0.5000 0.0000 0.8660
vn -0.5000 0.0000 0.8660
vn 0.0000 1.0000 0.0000
vn -1.0000 0.0000 0.0000
vn -0.5000 0.0000 -0.8660
vn 0.0000 -1.0000 0.0000
s off
f 2/1/1 3/2/1 1/3/1
f 4/4/2 5/5/2 3/6/2
f 6/7/3 7/8/3 5/9/3
f 8/10/4 9/11/4 7/8/4
f 2/1/5 10/12/5 4/13/5
f 10/14/6 11/15/6 9/16/6
f 12/17/7 1/3/7 11/18/7
f 5/19/8 7/20/8 11/21/8
f 2/1/1 4/22/1 3/2/1
f 4/4/2 6/23/2 5/5/2
f 6/7/3 8/10/3 7/8/3
f 8/10/4 10/24/4 9/11/4
f 6/25/5 4/13/5 10/12/5
f 2/1/5 12/26/5 10/12/5
f 10/12/5 8/27/5 6/25/5
f 10/14/6 12/28/6 11/15/6
f 12/17/7 2/1/7 1/3/7
f 11/21/8 1/3/8 3/29/8
f 3/29/8 5/19/8 11/21/8
f 7/20/8 9/30/8 11/21/8
